<mxfile host="app.diagrams.net" agent="Mozilla/5.0 (Windows NT 10.0; Win64; x64) AppleWebKit/537.36 (KHTML, like Gecko) Chrome/134.0.0.0 YaBrowser/25.4.0.0 Safari/537.36" version="27.0.5">
  <diagram name="Страница — 1" id="ly96V5qOTeubzzJ0_UO-">
    <mxGraphModel dx="1426" dy="916" grid="1" gridSize="10" guides="1" tooltips="1" connect="1" arrows="1" fold="1" page="1" pageScale="1" pageWidth="1169" pageHeight="827" math="0" shadow="0">
      <root>
        <mxCell id="0" />
        <mxCell id="1" parent="0" />
        <mxCell id="fIFdkWrldsteXy0r9QNV-119" value="" style="rounded=0;whiteSpace=wrap;html=1;" vertex="1" parent="1">
          <mxGeometry x="100" y="20" width="960" height="590" as="geometry" />
        </mxCell>
        <mxCell id="fIFdkWrldsteXy0r9QNV-1" value="Пользователь" style="rounded=0;whiteSpace=wrap;html=1;" vertex="1" parent="1">
          <mxGeometry x="120" y="40" width="120" height="30" as="geometry" />
        </mxCell>
        <mxCell id="fIFdkWrldsteXy0r9QNV-2" value="Система" style="rounded=0;whiteSpace=wrap;html=1;" vertex="1" parent="1">
          <mxGeometry x="320" y="40" width="120" height="30" as="geometry" />
        </mxCell>
        <mxCell id="fIFdkWrldsteXy0r9QNV-3" value="Администратор" style="rounded=0;whiteSpace=wrap;html=1;" vertex="1" parent="1">
          <mxGeometry x="640" y="40" width="120" height="30" as="geometry" />
        </mxCell>
        <mxCell id="fIFdkWrldsteXy0r9QNV-4" value="Система" style="rounded=0;whiteSpace=wrap;html=1;" vertex="1" parent="1">
          <mxGeometry x="840" y="40" width="120" height="30" as="geometry" />
        </mxCell>
        <mxCell id="fIFdkWrldsteXy0r9QNV-5" value="" style="endArrow=none;dashed=1;html=1;rounded=0;entryX=0.5;entryY=1;entryDx=0;entryDy=0;" edge="1" parent="1" source="fIFdkWrldsteXy0r9QNV-9" target="fIFdkWrldsteXy0r9QNV-1">
          <mxGeometry width="50" height="50" relative="1" as="geometry">
            <mxPoint x="180" y="720" as="sourcePoint" />
            <mxPoint x="610" y="350" as="targetPoint" />
          </mxGeometry>
        </mxCell>
        <mxCell id="fIFdkWrldsteXy0r9QNV-6" value="" style="endArrow=none;dashed=1;html=1;rounded=0;entryX=0.5;entryY=1;entryDx=0;entryDy=0;" edge="1" parent="1" source="fIFdkWrldsteXy0r9QNV-22" target="fIFdkWrldsteXy0r9QNV-2">
          <mxGeometry width="50" height="50" relative="1" as="geometry">
            <mxPoint x="380" y="560" as="sourcePoint" />
            <mxPoint x="610" y="350" as="targetPoint" />
          </mxGeometry>
        </mxCell>
        <mxCell id="fIFdkWrldsteXy0r9QNV-7" value="" style="endArrow=none;dashed=1;html=1;rounded=0;entryX=0.5;entryY=1;entryDx=0;entryDy=0;" edge="1" parent="1" source="fIFdkWrldsteXy0r9QNV-31" target="fIFdkWrldsteXy0r9QNV-3">
          <mxGeometry width="50" height="50" relative="1" as="geometry">
            <mxPoint x="700" y="560" as="sourcePoint" />
            <mxPoint x="610" y="350" as="targetPoint" />
          </mxGeometry>
        </mxCell>
        <mxCell id="fIFdkWrldsteXy0r9QNV-8" value="" style="endArrow=none;dashed=1;html=1;rounded=0;entryX=0.5;entryY=1;entryDx=0;entryDy=0;" edge="1" parent="1" source="fIFdkWrldsteXy0r9QNV-43" target="fIFdkWrldsteXy0r9QNV-4">
          <mxGeometry width="50" height="50" relative="1" as="geometry">
            <mxPoint x="900" y="560" as="sourcePoint" />
            <mxPoint x="610" y="350" as="targetPoint" />
          </mxGeometry>
        </mxCell>
        <mxCell id="fIFdkWrldsteXy0r9QNV-10" value="" style="endArrow=none;dashed=1;html=1;rounded=0;entryX=0.5;entryY=1;entryDx=0;entryDy=0;" edge="1" parent="1" source="fIFdkWrldsteXy0r9QNV-11" target="fIFdkWrldsteXy0r9QNV-9">
          <mxGeometry width="50" height="50" relative="1" as="geometry">
            <mxPoint x="180" y="720" as="sourcePoint" />
            <mxPoint x="180" y="70" as="targetPoint" />
          </mxGeometry>
        </mxCell>
        <mxCell id="fIFdkWrldsteXy0r9QNV-9" value="" style="rounded=0;whiteSpace=wrap;html=1;" vertex="1" parent="1">
          <mxGeometry x="175" y="120" width="10" height="40" as="geometry" />
        </mxCell>
        <mxCell id="fIFdkWrldsteXy0r9QNV-12" value="" style="endArrow=none;dashed=1;html=1;rounded=0;entryX=0.5;entryY=1;entryDx=0;entryDy=0;" edge="1" parent="1" source="fIFdkWrldsteXy0r9QNV-13" target="fIFdkWrldsteXy0r9QNV-11">
          <mxGeometry width="50" height="50" relative="1" as="geometry">
            <mxPoint x="180" y="720" as="sourcePoint" />
            <mxPoint x="180" y="160" as="targetPoint" />
          </mxGeometry>
        </mxCell>
        <mxCell id="fIFdkWrldsteXy0r9QNV-11" value="" style="rounded=0;whiteSpace=wrap;html=1;" vertex="1" parent="1">
          <mxGeometry x="175" y="200" width="10" height="40" as="geometry" />
        </mxCell>
        <mxCell id="fIFdkWrldsteXy0r9QNV-14" value="" style="endArrow=none;dashed=1;html=1;rounded=0;entryX=0.5;entryY=1;entryDx=0;entryDy=0;" edge="1" parent="1" source="fIFdkWrldsteXy0r9QNV-15" target="fIFdkWrldsteXy0r9QNV-13">
          <mxGeometry width="50" height="50" relative="1" as="geometry">
            <mxPoint x="180" y="720" as="sourcePoint" />
            <mxPoint x="180" y="240" as="targetPoint" />
          </mxGeometry>
        </mxCell>
        <mxCell id="fIFdkWrldsteXy0r9QNV-13" value="" style="rounded=0;whiteSpace=wrap;html=1;" vertex="1" parent="1">
          <mxGeometry x="175" y="280" width="10" height="40" as="geometry" />
        </mxCell>
        <mxCell id="fIFdkWrldsteXy0r9QNV-16" value="" style="endArrow=none;dashed=1;html=1;rounded=0;entryX=0.5;entryY=1;entryDx=0;entryDy=0;" edge="1" parent="1" source="fIFdkWrldsteXy0r9QNV-17" target="fIFdkWrldsteXy0r9QNV-15">
          <mxGeometry width="50" height="50" relative="1" as="geometry">
            <mxPoint x="180" y="720" as="sourcePoint" />
            <mxPoint x="180" y="320" as="targetPoint" />
          </mxGeometry>
        </mxCell>
        <mxCell id="fIFdkWrldsteXy0r9QNV-15" value="" style="rounded=0;whiteSpace=wrap;html=1;" vertex="1" parent="1">
          <mxGeometry x="175" y="360" width="10" height="40" as="geometry" />
        </mxCell>
        <mxCell id="fIFdkWrldsteXy0r9QNV-18" value="" style="endArrow=none;dashed=1;html=1;rounded=0;entryX=0.5;entryY=1;entryDx=0;entryDy=0;" edge="1" parent="1" source="fIFdkWrldsteXy0r9QNV-19" target="fIFdkWrldsteXy0r9QNV-17">
          <mxGeometry width="50" height="50" relative="1" as="geometry">
            <mxPoint x="180" y="720" as="sourcePoint" />
            <mxPoint x="180" y="400" as="targetPoint" />
          </mxGeometry>
        </mxCell>
        <mxCell id="fIFdkWrldsteXy0r9QNV-17" value="" style="rounded=0;whiteSpace=wrap;html=1;" vertex="1" parent="1">
          <mxGeometry x="175" y="440" width="10" height="40" as="geometry" />
        </mxCell>
        <mxCell id="fIFdkWrldsteXy0r9QNV-20" value="" style="endArrow=none;dashed=1;html=1;rounded=0;entryX=0.5;entryY=1;entryDx=0;entryDy=0;exitX=0.5;exitY=1;exitDx=0;exitDy=0;" edge="1" parent="1" source="fIFdkWrldsteXy0r9QNV-19" target="fIFdkWrldsteXy0r9QNV-19">
          <mxGeometry width="50" height="50" relative="1" as="geometry">
            <mxPoint x="180" y="720" as="sourcePoint" />
            <mxPoint x="180" y="480" as="targetPoint" />
          </mxGeometry>
        </mxCell>
        <mxCell id="fIFdkWrldsteXy0r9QNV-19" value="" style="rounded=0;whiteSpace=wrap;html=1;" vertex="1" parent="1">
          <mxGeometry x="175" y="520" width="10" height="40" as="geometry" />
        </mxCell>
        <mxCell id="fIFdkWrldsteXy0r9QNV-21" value="" style="rounded=0;whiteSpace=wrap;html=1;" vertex="1" parent="1">
          <mxGeometry x="375" y="120" width="10" height="40" as="geometry" />
        </mxCell>
        <mxCell id="fIFdkWrldsteXy0r9QNV-23" value="" style="endArrow=none;dashed=1;html=1;rounded=0;entryX=0.5;entryY=1;entryDx=0;entryDy=0;" edge="1" parent="1" source="fIFdkWrldsteXy0r9QNV-24" target="fIFdkWrldsteXy0r9QNV-22">
          <mxGeometry width="50" height="50" relative="1" as="geometry">
            <mxPoint x="380" y="560" as="sourcePoint" />
            <mxPoint x="380" y="70" as="targetPoint" />
          </mxGeometry>
        </mxCell>
        <mxCell id="fIFdkWrldsteXy0r9QNV-22" value="" style="rounded=0;whiteSpace=wrap;html=1;" vertex="1" parent="1">
          <mxGeometry x="375" y="200" width="10" height="40" as="geometry" />
        </mxCell>
        <mxCell id="fIFdkWrldsteXy0r9QNV-25" value="" style="endArrow=none;dashed=1;html=1;rounded=0;entryX=0.5;entryY=1;entryDx=0;entryDy=0;" edge="1" parent="1" source="fIFdkWrldsteXy0r9QNV-26" target="fIFdkWrldsteXy0r9QNV-24">
          <mxGeometry width="50" height="50" relative="1" as="geometry">
            <mxPoint x="380" y="560" as="sourcePoint" />
            <mxPoint x="380" y="240" as="targetPoint" />
          </mxGeometry>
        </mxCell>
        <mxCell id="fIFdkWrldsteXy0r9QNV-24" value="" style="rounded=0;whiteSpace=wrap;html=1;" vertex="1" parent="1">
          <mxGeometry x="375" y="280" width="10" height="40" as="geometry" />
        </mxCell>
        <mxCell id="fIFdkWrldsteXy0r9QNV-27" value="" style="endArrow=none;dashed=1;html=1;rounded=0;entryX=0.5;entryY=1;entryDx=0;entryDy=0;" edge="1" parent="1" source="fIFdkWrldsteXy0r9QNV-29" target="fIFdkWrldsteXy0r9QNV-26">
          <mxGeometry width="50" height="50" relative="1" as="geometry">
            <mxPoint x="380" y="560" as="sourcePoint" />
            <mxPoint x="380" y="320" as="targetPoint" />
          </mxGeometry>
        </mxCell>
        <mxCell id="fIFdkWrldsteXy0r9QNV-26" value="" style="rounded=0;whiteSpace=wrap;html=1;" vertex="1" parent="1">
          <mxGeometry x="375" y="360" width="10" height="40" as="geometry" />
        </mxCell>
        <mxCell id="fIFdkWrldsteXy0r9QNV-28" value="" style="rounded=0;whiteSpace=wrap;html=1;" vertex="1" parent="1">
          <mxGeometry x="375" y="440" width="10" height="40" as="geometry" />
        </mxCell>
        <mxCell id="fIFdkWrldsteXy0r9QNV-30" value="" style="endArrow=none;dashed=1;html=1;rounded=0;entryX=0.5;entryY=1;entryDx=0;entryDy=0;" edge="1" parent="1" target="fIFdkWrldsteXy0r9QNV-29">
          <mxGeometry width="50" height="50" relative="1" as="geometry">
            <mxPoint x="380" y="560" as="sourcePoint" />
            <mxPoint x="380" y="400" as="targetPoint" />
          </mxGeometry>
        </mxCell>
        <mxCell id="fIFdkWrldsteXy0r9QNV-29" value="" style="rounded=0;whiteSpace=wrap;html=1;" vertex="1" parent="1">
          <mxGeometry x="375" y="520" width="10" height="40" as="geometry" />
        </mxCell>
        <mxCell id="fIFdkWrldsteXy0r9QNV-32" value="" style="endArrow=none;dashed=1;html=1;rounded=0;entryX=0.5;entryY=1;entryDx=0;entryDy=0;" edge="1" parent="1" source="fIFdkWrldsteXy0r9QNV-33" target="fIFdkWrldsteXy0r9QNV-31">
          <mxGeometry width="50" height="50" relative="1" as="geometry">
            <mxPoint x="700" y="560" as="sourcePoint" />
            <mxPoint x="700" y="70" as="targetPoint" />
          </mxGeometry>
        </mxCell>
        <mxCell id="fIFdkWrldsteXy0r9QNV-31" value="" style="rounded=0;whiteSpace=wrap;html=1;" vertex="1" parent="1">
          <mxGeometry x="695" y="120" width="10" height="40" as="geometry" />
        </mxCell>
        <mxCell id="fIFdkWrldsteXy0r9QNV-34" value="" style="endArrow=none;dashed=1;html=1;rounded=0;entryX=0.5;entryY=1;entryDx=0;entryDy=0;" edge="1" parent="1" source="fIFdkWrldsteXy0r9QNV-35" target="fIFdkWrldsteXy0r9QNV-33">
          <mxGeometry width="50" height="50" relative="1" as="geometry">
            <mxPoint x="700" y="560" as="sourcePoint" />
            <mxPoint x="700" y="160" as="targetPoint" />
          </mxGeometry>
        </mxCell>
        <mxCell id="fIFdkWrldsteXy0r9QNV-33" value="" style="rounded=0;whiteSpace=wrap;html=1;" vertex="1" parent="1">
          <mxGeometry x="695" y="200" width="10" height="40" as="geometry" />
        </mxCell>
        <mxCell id="fIFdkWrldsteXy0r9QNV-36" value="" style="endArrow=none;dashed=1;html=1;rounded=0;entryX=0.5;entryY=1;entryDx=0;entryDy=0;" edge="1" parent="1" source="fIFdkWrldsteXy0r9QNV-37" target="fIFdkWrldsteXy0r9QNV-35">
          <mxGeometry width="50" height="50" relative="1" as="geometry">
            <mxPoint x="700" y="560" as="sourcePoint" />
            <mxPoint x="700" y="240" as="targetPoint" />
          </mxGeometry>
        </mxCell>
        <mxCell id="fIFdkWrldsteXy0r9QNV-35" value="" style="rounded=0;whiteSpace=wrap;html=1;" vertex="1" parent="1">
          <mxGeometry x="695" y="280" width="10" height="40" as="geometry" />
        </mxCell>
        <mxCell id="fIFdkWrldsteXy0r9QNV-38" value="" style="endArrow=none;dashed=1;html=1;rounded=0;entryX=0.5;entryY=1;entryDx=0;entryDy=0;" edge="1" parent="1" source="fIFdkWrldsteXy0r9QNV-39" target="fIFdkWrldsteXy0r9QNV-37">
          <mxGeometry width="50" height="50" relative="1" as="geometry">
            <mxPoint x="700" y="560" as="sourcePoint" />
            <mxPoint x="700" y="320" as="targetPoint" />
          </mxGeometry>
        </mxCell>
        <mxCell id="fIFdkWrldsteXy0r9QNV-37" value="" style="rounded=0;whiteSpace=wrap;html=1;" vertex="1" parent="1">
          <mxGeometry x="695" y="360" width="10" height="40" as="geometry" />
        </mxCell>
        <mxCell id="fIFdkWrldsteXy0r9QNV-40" value="" style="endArrow=none;dashed=1;html=1;rounded=0;entryX=0.5;entryY=1;entryDx=0;entryDy=0;" edge="1" parent="1" source="fIFdkWrldsteXy0r9QNV-41" target="fIFdkWrldsteXy0r9QNV-39">
          <mxGeometry width="50" height="50" relative="1" as="geometry">
            <mxPoint x="700" y="560" as="sourcePoint" />
            <mxPoint x="700" y="400" as="targetPoint" />
          </mxGeometry>
        </mxCell>
        <mxCell id="fIFdkWrldsteXy0r9QNV-39" value="" style="rounded=0;whiteSpace=wrap;html=1;" vertex="1" parent="1">
          <mxGeometry x="695" y="440" width="10" height="40" as="geometry" />
        </mxCell>
        <mxCell id="fIFdkWrldsteXy0r9QNV-42" value="" style="endArrow=none;dashed=1;html=1;rounded=0;entryX=0.5;entryY=1;entryDx=0;entryDy=0;" edge="1" parent="1" target="fIFdkWrldsteXy0r9QNV-41">
          <mxGeometry width="50" height="50" relative="1" as="geometry">
            <mxPoint x="700" y="560" as="sourcePoint" />
            <mxPoint x="700" y="480" as="targetPoint" />
          </mxGeometry>
        </mxCell>
        <mxCell id="fIFdkWrldsteXy0r9QNV-41" value="" style="rounded=0;whiteSpace=wrap;html=1;" vertex="1" parent="1">
          <mxGeometry x="695" y="520" width="10" height="40" as="geometry" />
        </mxCell>
        <mxCell id="fIFdkWrldsteXy0r9QNV-44" value="" style="endArrow=none;dashed=1;html=1;rounded=0;entryX=0.5;entryY=1;entryDx=0;entryDy=0;" edge="1" parent="1" source="fIFdkWrldsteXy0r9QNV-45" target="fIFdkWrldsteXy0r9QNV-43">
          <mxGeometry width="50" height="50" relative="1" as="geometry">
            <mxPoint x="900" y="560" as="sourcePoint" />
            <mxPoint x="900" y="70" as="targetPoint" />
          </mxGeometry>
        </mxCell>
        <mxCell id="fIFdkWrldsteXy0r9QNV-43" value="" style="rounded=0;whiteSpace=wrap;html=1;" vertex="1" parent="1">
          <mxGeometry x="895" y="120" width="10" height="40" as="geometry" />
        </mxCell>
        <mxCell id="fIFdkWrldsteXy0r9QNV-46" value="" style="endArrow=none;dashed=1;html=1;rounded=0;entryX=0.5;entryY=1;entryDx=0;entryDy=0;" edge="1" parent="1" source="fIFdkWrldsteXy0r9QNV-47" target="fIFdkWrldsteXy0r9QNV-45">
          <mxGeometry width="50" height="50" relative="1" as="geometry">
            <mxPoint x="900" y="560" as="sourcePoint" />
            <mxPoint x="900" y="160" as="targetPoint" />
          </mxGeometry>
        </mxCell>
        <mxCell id="fIFdkWrldsteXy0r9QNV-45" value="" style="rounded=0;whiteSpace=wrap;html=1;" vertex="1" parent="1">
          <mxGeometry x="895" y="200" width="10" height="40" as="geometry" />
        </mxCell>
        <mxCell id="fIFdkWrldsteXy0r9QNV-48" value="" style="endArrow=none;dashed=1;html=1;rounded=0;entryX=0.5;entryY=1;entryDx=0;entryDy=0;" edge="1" parent="1" source="fIFdkWrldsteXy0r9QNV-49" target="fIFdkWrldsteXy0r9QNV-47">
          <mxGeometry width="50" height="50" relative="1" as="geometry">
            <mxPoint x="900" y="560" as="sourcePoint" />
            <mxPoint x="900" y="240" as="targetPoint" />
          </mxGeometry>
        </mxCell>
        <mxCell id="fIFdkWrldsteXy0r9QNV-47" value="" style="rounded=0;whiteSpace=wrap;html=1;" vertex="1" parent="1">
          <mxGeometry x="895" y="280" width="10" height="40" as="geometry" />
        </mxCell>
        <mxCell id="fIFdkWrldsteXy0r9QNV-50" value="" style="endArrow=none;dashed=1;html=1;rounded=0;entryX=0.5;entryY=1;entryDx=0;entryDy=0;" edge="1" parent="1" source="fIFdkWrldsteXy0r9QNV-51" target="fIFdkWrldsteXy0r9QNV-49">
          <mxGeometry width="50" height="50" relative="1" as="geometry">
            <mxPoint x="900" y="560" as="sourcePoint" />
            <mxPoint x="900" y="320" as="targetPoint" />
          </mxGeometry>
        </mxCell>
        <mxCell id="fIFdkWrldsteXy0r9QNV-49" value="" style="rounded=0;whiteSpace=wrap;html=1;" vertex="1" parent="1">
          <mxGeometry x="895" y="360" width="10" height="40" as="geometry" />
        </mxCell>
        <mxCell id="fIFdkWrldsteXy0r9QNV-52" value="" style="endArrow=none;dashed=1;html=1;rounded=0;entryX=0.5;entryY=1;entryDx=0;entryDy=0;" edge="1" parent="1" source="fIFdkWrldsteXy0r9QNV-53" target="fIFdkWrldsteXy0r9QNV-51">
          <mxGeometry width="50" height="50" relative="1" as="geometry">
            <mxPoint x="900" y="560" as="sourcePoint" />
            <mxPoint x="900" y="400" as="targetPoint" />
          </mxGeometry>
        </mxCell>
        <mxCell id="fIFdkWrldsteXy0r9QNV-51" value="" style="rounded=0;whiteSpace=wrap;html=1;" vertex="1" parent="1">
          <mxGeometry x="895" y="440" width="10" height="40" as="geometry" />
        </mxCell>
        <mxCell id="fIFdkWrldsteXy0r9QNV-54" value="" style="endArrow=none;dashed=1;html=1;rounded=0;entryX=0.5;entryY=1;entryDx=0;entryDy=0;" edge="1" parent="1" target="fIFdkWrldsteXy0r9QNV-53">
          <mxGeometry width="50" height="50" relative="1" as="geometry">
            <mxPoint x="900" y="560" as="sourcePoint" />
            <mxPoint x="900" y="480" as="targetPoint" />
          </mxGeometry>
        </mxCell>
        <mxCell id="fIFdkWrldsteXy0r9QNV-53" value="" style="rounded=0;whiteSpace=wrap;html=1;" vertex="1" parent="1">
          <mxGeometry x="895" y="520" width="10" height="40" as="geometry" />
        </mxCell>
        <mxCell id="fIFdkWrldsteXy0r9QNV-55" value="" style="endArrow=classic;html=1;rounded=0;exitX=1;exitY=0.25;exitDx=0;exitDy=0;entryX=0;entryY=0.25;entryDx=0;entryDy=0;" edge="1" parent="1" source="fIFdkWrldsteXy0r9QNV-9" target="fIFdkWrldsteXy0r9QNV-21">
          <mxGeometry width="50" height="50" relative="1" as="geometry">
            <mxPoint x="560" y="400" as="sourcePoint" />
            <mxPoint x="610" y="350" as="targetPoint" />
          </mxGeometry>
        </mxCell>
        <mxCell id="fIFdkWrldsteXy0r9QNV-57" value="" style="endArrow=classic;html=1;rounded=0;exitX=1;exitY=0.25;exitDx=0;exitDy=0;entryX=0;entryY=0.25;entryDx=0;entryDy=0;" edge="1" parent="1">
          <mxGeometry width="50" height="50" relative="1" as="geometry">
            <mxPoint x="185" y="210" as="sourcePoint" />
            <mxPoint x="375" y="210" as="targetPoint" />
          </mxGeometry>
        </mxCell>
        <mxCell id="fIFdkWrldsteXy0r9QNV-58" value="" style="endArrow=classic;html=1;rounded=0;exitX=1;exitY=0.25;exitDx=0;exitDy=0;entryX=0;entryY=0.25;entryDx=0;entryDy=0;" edge="1" parent="1">
          <mxGeometry width="50" height="50" relative="1" as="geometry">
            <mxPoint x="185" y="290" as="sourcePoint" />
            <mxPoint x="375" y="290" as="targetPoint" />
          </mxGeometry>
        </mxCell>
        <mxCell id="fIFdkWrldsteXy0r9QNV-59" value="" style="endArrow=classic;html=1;rounded=0;exitX=1;exitY=0.25;exitDx=0;exitDy=0;entryX=0;entryY=0.25;entryDx=0;entryDy=0;" edge="1" parent="1">
          <mxGeometry width="50" height="50" relative="1" as="geometry">
            <mxPoint x="185" y="370" as="sourcePoint" />
            <mxPoint x="375" y="370" as="targetPoint" />
          </mxGeometry>
        </mxCell>
        <mxCell id="fIFdkWrldsteXy0r9QNV-60" value="" style="endArrow=classic;html=1;rounded=0;exitX=1;exitY=0.25;exitDx=0;exitDy=0;entryX=0;entryY=0.25;entryDx=0;entryDy=0;" edge="1" parent="1">
          <mxGeometry width="50" height="50" relative="1" as="geometry">
            <mxPoint x="185" y="450" as="sourcePoint" />
            <mxPoint x="375" y="450" as="targetPoint" />
          </mxGeometry>
        </mxCell>
        <mxCell id="fIFdkWrldsteXy0r9QNV-61" value="" style="endArrow=classic;html=1;rounded=0;exitX=1;exitY=0.25;exitDx=0;exitDy=0;entryX=0;entryY=0.25;entryDx=0;entryDy=0;" edge="1" parent="1">
          <mxGeometry width="50" height="50" relative="1" as="geometry">
            <mxPoint x="185" y="530" as="sourcePoint" />
            <mxPoint x="375" y="530" as="targetPoint" />
          </mxGeometry>
        </mxCell>
        <mxCell id="fIFdkWrldsteXy0r9QNV-62" value="" style="endArrow=classic;html=1;rounded=0;exitX=1;exitY=0.25;exitDx=0;exitDy=0;entryX=0;entryY=0.25;entryDx=0;entryDy=0;" edge="1" parent="1">
          <mxGeometry width="50" height="50" relative="1" as="geometry">
            <mxPoint x="705" y="130" as="sourcePoint" />
            <mxPoint x="895" y="130" as="targetPoint" />
          </mxGeometry>
        </mxCell>
        <mxCell id="fIFdkWrldsteXy0r9QNV-63" value="" style="endArrow=classic;html=1;rounded=0;exitX=1;exitY=0.25;exitDx=0;exitDy=0;entryX=0;entryY=0.25;entryDx=0;entryDy=0;" edge="1" parent="1">
          <mxGeometry width="50" height="50" relative="1" as="geometry">
            <mxPoint x="705" y="210" as="sourcePoint" />
            <mxPoint x="895" y="210" as="targetPoint" />
          </mxGeometry>
        </mxCell>
        <mxCell id="fIFdkWrldsteXy0r9QNV-64" value="" style="endArrow=classic;html=1;rounded=0;exitX=1;exitY=0.25;exitDx=0;exitDy=0;entryX=0;entryY=0.25;entryDx=0;entryDy=0;" edge="1" parent="1">
          <mxGeometry width="50" height="50" relative="1" as="geometry">
            <mxPoint x="705" y="290" as="sourcePoint" />
            <mxPoint x="895" y="290" as="targetPoint" />
          </mxGeometry>
        </mxCell>
        <mxCell id="fIFdkWrldsteXy0r9QNV-65" value="" style="endArrow=classic;html=1;rounded=0;exitX=1;exitY=0.25;exitDx=0;exitDy=0;entryX=0;entryY=0.25;entryDx=0;entryDy=0;" edge="1" parent="1">
          <mxGeometry width="50" height="50" relative="1" as="geometry">
            <mxPoint x="705" y="370" as="sourcePoint" />
            <mxPoint x="895" y="370" as="targetPoint" />
          </mxGeometry>
        </mxCell>
        <mxCell id="fIFdkWrldsteXy0r9QNV-66" value="" style="endArrow=classic;html=1;rounded=0;exitX=1;exitY=0.25;exitDx=0;exitDy=0;entryX=0;entryY=0.25;entryDx=0;entryDy=0;" edge="1" parent="1">
          <mxGeometry width="50" height="50" relative="1" as="geometry">
            <mxPoint x="705" y="450" as="sourcePoint" />
            <mxPoint x="895" y="450" as="targetPoint" />
          </mxGeometry>
        </mxCell>
        <mxCell id="fIFdkWrldsteXy0r9QNV-67" value="" style="endArrow=classic;html=1;rounded=0;exitX=1;exitY=0.25;exitDx=0;exitDy=0;entryX=0;entryY=0.25;entryDx=0;entryDy=0;" edge="1" parent="1">
          <mxGeometry width="50" height="50" relative="1" as="geometry">
            <mxPoint x="705" y="530" as="sourcePoint" />
            <mxPoint x="895" y="530" as="targetPoint" />
          </mxGeometry>
        </mxCell>
        <mxCell id="fIFdkWrldsteXy0r9QNV-68" value="" style="endArrow=classic;html=1;rounded=0;exitX=0;exitY=0.75;exitDx=0;exitDy=0;entryX=1;entryY=0.75;entryDx=0;entryDy=0;dashed=1;" edge="1" parent="1">
          <mxGeometry width="50" height="50" relative="1" as="geometry">
            <mxPoint x="375" y="139.5" as="sourcePoint" />
            <mxPoint x="185" y="139.5" as="targetPoint" />
          </mxGeometry>
        </mxCell>
        <mxCell id="fIFdkWrldsteXy0r9QNV-69" value="" style="endArrow=classic;html=1;rounded=0;exitX=0;exitY=0.75;exitDx=0;exitDy=0;entryX=1;entryY=0.75;entryDx=0;entryDy=0;dashed=1;" edge="1" parent="1">
          <mxGeometry width="50" height="50" relative="1" as="geometry">
            <mxPoint x="375" y="219.5" as="sourcePoint" />
            <mxPoint x="185" y="219.5" as="targetPoint" />
          </mxGeometry>
        </mxCell>
        <mxCell id="fIFdkWrldsteXy0r9QNV-70" value="" style="endArrow=classic;html=1;rounded=0;exitX=0;exitY=0.75;exitDx=0;exitDy=0;entryX=1;entryY=0.75;entryDx=0;entryDy=0;dashed=1;" edge="1" parent="1">
          <mxGeometry width="50" height="50" relative="1" as="geometry">
            <mxPoint x="375" y="310" as="sourcePoint" />
            <mxPoint x="185" y="310" as="targetPoint" />
          </mxGeometry>
        </mxCell>
        <mxCell id="fIFdkWrldsteXy0r9QNV-71" value="" style="endArrow=classic;html=1;rounded=0;exitX=0;exitY=0.75;exitDx=0;exitDy=0;entryX=1;entryY=0.75;entryDx=0;entryDy=0;dashed=1;" edge="1" parent="1">
          <mxGeometry width="50" height="50" relative="1" as="geometry">
            <mxPoint x="375" y="390" as="sourcePoint" />
            <mxPoint x="185" y="390" as="targetPoint" />
          </mxGeometry>
        </mxCell>
        <mxCell id="fIFdkWrldsteXy0r9QNV-72" value="" style="endArrow=classic;html=1;rounded=0;exitX=0;exitY=0.75;exitDx=0;exitDy=0;entryX=1;entryY=0.75;entryDx=0;entryDy=0;dashed=1;" edge="1" parent="1">
          <mxGeometry width="50" height="50" relative="1" as="geometry">
            <mxPoint x="375" y="470" as="sourcePoint" />
            <mxPoint x="185" y="470" as="targetPoint" />
          </mxGeometry>
        </mxCell>
        <mxCell id="fIFdkWrldsteXy0r9QNV-73" value="" style="endArrow=classic;html=1;rounded=0;exitX=0;exitY=0.75;exitDx=0;exitDy=0;entryX=1;entryY=0.75;entryDx=0;entryDy=0;dashed=1;" edge="1" parent="1">
          <mxGeometry width="50" height="50" relative="1" as="geometry">
            <mxPoint x="375" y="550" as="sourcePoint" />
            <mxPoint x="185" y="550" as="targetPoint" />
          </mxGeometry>
        </mxCell>
        <mxCell id="fIFdkWrldsteXy0r9QNV-74" value="" style="endArrow=classic;html=1;rounded=0;exitX=0;exitY=0.75;exitDx=0;exitDy=0;entryX=1;entryY=0.75;entryDx=0;entryDy=0;dashed=1;" edge="1" parent="1">
          <mxGeometry width="50" height="50" relative="1" as="geometry">
            <mxPoint x="895" y="139.5" as="sourcePoint" />
            <mxPoint x="705" y="139.5" as="targetPoint" />
          </mxGeometry>
        </mxCell>
        <mxCell id="fIFdkWrldsteXy0r9QNV-75" value="" style="endArrow=classic;html=1;rounded=0;exitX=0;exitY=0.75;exitDx=0;exitDy=0;entryX=1;entryY=0.75;entryDx=0;entryDy=0;dashed=1;" edge="1" parent="1">
          <mxGeometry width="50" height="50" relative="1" as="geometry">
            <mxPoint x="895" y="230" as="sourcePoint" />
            <mxPoint x="705" y="230" as="targetPoint" />
          </mxGeometry>
        </mxCell>
        <mxCell id="fIFdkWrldsteXy0r9QNV-76" value="" style="endArrow=classic;html=1;rounded=0;exitX=0;exitY=0.75;exitDx=0;exitDy=0;entryX=1;entryY=0.75;entryDx=0;entryDy=0;dashed=1;" edge="1" parent="1">
          <mxGeometry width="50" height="50" relative="1" as="geometry">
            <mxPoint x="895" y="310" as="sourcePoint" />
            <mxPoint x="705" y="310" as="targetPoint" />
          </mxGeometry>
        </mxCell>
        <mxCell id="fIFdkWrldsteXy0r9QNV-77" value="" style="endArrow=classic;html=1;rounded=0;exitX=0;exitY=0.75;exitDx=0;exitDy=0;entryX=1;entryY=0.75;entryDx=0;entryDy=0;dashed=1;" edge="1" parent="1">
          <mxGeometry width="50" height="50" relative="1" as="geometry">
            <mxPoint x="895" y="390" as="sourcePoint" />
            <mxPoint x="705" y="390" as="targetPoint" />
          </mxGeometry>
        </mxCell>
        <mxCell id="fIFdkWrldsteXy0r9QNV-78" value="" style="endArrow=classic;html=1;rounded=0;exitX=0;exitY=0.75;exitDx=0;exitDy=0;entryX=1;entryY=0.75;entryDx=0;entryDy=0;dashed=1;" edge="1" parent="1">
          <mxGeometry width="50" height="50" relative="1" as="geometry">
            <mxPoint x="895" y="470" as="sourcePoint" />
            <mxPoint x="705" y="470" as="targetPoint" />
          </mxGeometry>
        </mxCell>
        <mxCell id="fIFdkWrldsteXy0r9QNV-79" value="" style="endArrow=classic;html=1;rounded=0;exitX=0;exitY=0.75;exitDx=0;exitDy=0;entryX=1;entryY=0.75;entryDx=0;entryDy=0;dashed=1;" edge="1" parent="1">
          <mxGeometry width="50" height="50" relative="1" as="geometry">
            <mxPoint x="895" y="550" as="sourcePoint" />
            <mxPoint x="705" y="550" as="targetPoint" />
          </mxGeometry>
        </mxCell>
        <mxCell id="fIFdkWrldsteXy0r9QNV-80" value="" style="endArrow=classic;html=1;rounded=0;exitX=0;exitY=0.75;exitDx=0;exitDy=0;entryX=1;entryY=0.75;entryDx=0;entryDy=0;dashed=1;" edge="1" parent="1">
          <mxGeometry width="50" height="50" relative="1" as="geometry">
            <mxPoint x="375" y="159" as="sourcePoint" />
            <mxPoint x="185" y="159" as="targetPoint" />
            <Array as="points">
              <mxPoint x="360" y="170" />
              <mxPoint x="210" y="170" />
            </Array>
          </mxGeometry>
        </mxCell>
        <mxCell id="fIFdkWrldsteXy0r9QNV-81" value="" style="endArrow=classic;html=1;rounded=0;exitX=0;exitY=0.75;exitDx=0;exitDy=0;entryX=1;entryY=0.75;entryDx=0;entryDy=0;dashed=1;" edge="1" parent="1">
          <mxGeometry width="50" height="50" relative="1" as="geometry">
            <mxPoint x="375" y="240" as="sourcePoint" />
            <mxPoint x="185" y="240" as="targetPoint" />
            <Array as="points">
              <mxPoint x="360" y="250" />
              <mxPoint x="210" y="250" />
            </Array>
          </mxGeometry>
        </mxCell>
        <mxCell id="fIFdkWrldsteXy0r9QNV-82" value="" style="endArrow=classic;html=1;rounded=0;exitX=0;exitY=0.75;exitDx=0;exitDy=0;entryX=1;entryY=0.75;entryDx=0;entryDy=0;dashed=1;" edge="1" parent="1">
          <mxGeometry width="50" height="50" relative="1" as="geometry">
            <mxPoint x="895" y="160" as="sourcePoint" />
            <mxPoint x="705" y="160" as="targetPoint" />
            <Array as="points">
              <mxPoint x="870" y="170" />
              <mxPoint x="730" y="170" />
            </Array>
          </mxGeometry>
        </mxCell>
        <mxCell id="fIFdkWrldsteXy0r9QNV-83" value="Регистрация" style="text;html=1;align=center;verticalAlign=middle;whiteSpace=wrap;rounded=0;" vertex="1" parent="1">
          <mxGeometry x="240" y="107" width="60" height="30" as="geometry" />
        </mxCell>
        <mxCell id="fIFdkWrldsteXy0r9QNV-84" value="Успешная регистрация" style="text;html=1;align=center;verticalAlign=middle;whiteSpace=wrap;rounded=0;" vertex="1" parent="1">
          <mxGeometry x="200" y="137" width="160" height="30" as="geometry" />
        </mxCell>
        <mxCell id="fIFdkWrldsteXy0r9QNV-85" value="Авторизация" style="text;html=1;align=center;verticalAlign=middle;whiteSpace=wrap;rounded=0;" vertex="1" parent="1">
          <mxGeometry x="240" y="190" width="60" height="30" as="geometry" />
        </mxCell>
        <mxCell id="fIFdkWrldsteXy0r9QNV-86" value="Успешная авторизация" style="text;html=1;align=center;verticalAlign=middle;whiteSpace=wrap;rounded=0;" vertex="1" parent="1">
          <mxGeometry x="185" y="215" width="180" height="30" as="geometry" />
        </mxCell>
        <mxCell id="fIFdkWrldsteXy0r9QNV-87" value="Вход в систему" style="text;html=1;align=center;verticalAlign=middle;whiteSpace=wrap;rounded=0;" vertex="1" parent="1">
          <mxGeometry x="230" y="264" width="100" height="30" as="geometry" />
        </mxCell>
        <mxCell id="fIFdkWrldsteXy0r9QNV-88" value="Авторизация" style="text;html=1;align=center;verticalAlign=middle;whiteSpace=wrap;rounded=0;" vertex="1" parent="1">
          <mxGeometry x="770" y="107" width="60" height="30" as="geometry" />
        </mxCell>
        <mxCell id="fIFdkWrldsteXy0r9QNV-89" value="Успешная авторизация" style="text;html=1;align=center;verticalAlign=middle;whiteSpace=wrap;rounded=0;" vertex="1" parent="1">
          <mxGeometry x="705" y="137" width="180" height="30" as="geometry" />
        </mxCell>
        <mxCell id="fIFdkWrldsteXy0r9QNV-90" value="Вход в систему" style="text;html=1;align=center;verticalAlign=middle;whiteSpace=wrap;rounded=0;" vertex="1" parent="1">
          <mxGeometry x="745" y="185" width="100" height="30" as="geometry" />
        </mxCell>
        <mxCell id="fIFdkWrldsteXy0r9QNV-91" value="Успешный вход в систему" style="text;html=1;align=center;verticalAlign=middle;whiteSpace=wrap;rounded=0;" vertex="1" parent="1">
          <mxGeometry x="195" y="310" width="170" height="30" as="geometry" />
        </mxCell>
        <mxCell id="fIFdkWrldsteXy0r9QNV-92" value="Успешный вход в систему" style="text;html=1;align=center;verticalAlign=middle;whiteSpace=wrap;rounded=0;" vertex="1" parent="1">
          <mxGeometry x="715" y="230" width="170" height="30" as="geometry" />
        </mxCell>
        <mxCell id="fIFdkWrldsteXy0r9QNV-93" value="Запрос на просмотр данных пользователя" style="text;html=1;align=center;verticalAlign=middle;whiteSpace=wrap;rounded=0;" vertex="1" parent="1">
          <mxGeometry x="200" y="340" width="150" height="30" as="geometry" />
        </mxCell>
        <mxCell id="fIFdkWrldsteXy0r9QNV-94" value="&lt;font style=&quot;font-size: 11px;&quot;&gt;Запрос на просмотр данных о тарифе&lt;/font&gt;" style="text;html=1;align=center;verticalAlign=middle;whiteSpace=wrap;rounded=0;" vertex="1" parent="1">
          <mxGeometry x="167.5" y="420" width="225" height="30" as="geometry" />
        </mxCell>
        <mxCell id="fIFdkWrldsteXy0r9QNV-96" value="Успешный вывод данных пользователя" style="text;html=1;align=center;verticalAlign=middle;whiteSpace=wrap;rounded=0;" vertex="1" parent="1">
          <mxGeometry x="190" y="390" width="170" height="30" as="geometry" />
        </mxCell>
        <mxCell id="fIFdkWrldsteXy0r9QNV-97" value="&lt;font style=&quot;font-size: 11px;&quot;&gt;Успешный вывод данных о тарифе&lt;/font&gt;" style="text;html=1;align=center;verticalAlign=middle;whiteSpace=wrap;rounded=0;" vertex="1" parent="1">
          <mxGeometry x="167.5" y="470" width="225" height="30" as="geometry" />
        </mxCell>
        <mxCell id="fIFdkWrldsteXy0r9QNV-98" value="Запрос на расчет квартплаты" style="text;html=1;align=center;verticalAlign=middle;whiteSpace=wrap;rounded=0;" vertex="1" parent="1">
          <mxGeometry x="195" y="500" width="170" height="30" as="geometry" />
        </mxCell>
        <mxCell id="fIFdkWrldsteXy0r9QNV-99" value="Успешный расчет квартплаты" style="text;html=1;align=center;verticalAlign=middle;whiteSpace=wrap;rounded=0;" vertex="1" parent="1">
          <mxGeometry x="195" y="550" width="170" height="30" as="geometry" />
        </mxCell>
        <mxCell id="fIFdkWrldsteXy0r9QNV-100" value="" style="curved=1;endArrow=classic;html=1;rounded=0;exitX=1;exitY=0.25;exitDx=0;exitDy=0;entryX=1;entryY=0.75;entryDx=0;entryDy=0;" edge="1" parent="1" source="fIFdkWrldsteXy0r9QNV-21" target="fIFdkWrldsteXy0r9QNV-21">
          <mxGeometry width="50" height="50" relative="1" as="geometry">
            <mxPoint x="560" y="410" as="sourcePoint" />
            <mxPoint x="610" y="360" as="targetPoint" />
            <Array as="points">
              <mxPoint x="430" y="110" />
              <mxPoint x="450" y="150" />
              <mxPoint x="420" y="170" />
            </Array>
          </mxGeometry>
        </mxCell>
        <mxCell id="fIFdkWrldsteXy0r9QNV-101" value="" style="curved=1;endArrow=classic;html=1;rounded=0;exitX=1;exitY=0.25;exitDx=0;exitDy=0;entryX=1;entryY=0.75;entryDx=0;entryDy=0;" edge="1" parent="1">
          <mxGeometry width="50" height="50" relative="1" as="geometry">
            <mxPoint x="385" y="210" as="sourcePoint" />
            <mxPoint x="385" y="230" as="targetPoint" />
            <Array as="points">
              <mxPoint x="430" y="190" />
              <mxPoint x="450" y="230" />
              <mxPoint x="420" y="250" />
            </Array>
          </mxGeometry>
        </mxCell>
        <mxCell id="fIFdkWrldsteXy0r9QNV-102" value="" style="curved=1;endArrow=classic;html=1;rounded=0;exitX=1;exitY=0.25;exitDx=0;exitDy=0;entryX=1;entryY=0.75;entryDx=0;entryDy=0;" edge="1" parent="1">
          <mxGeometry width="50" height="50" relative="1" as="geometry">
            <mxPoint x="905" y="130" as="sourcePoint" />
            <mxPoint x="905" y="150" as="targetPoint" />
            <Array as="points">
              <mxPoint x="950" y="110" />
              <mxPoint x="970" y="150" />
              <mxPoint x="940" y="170" />
            </Array>
          </mxGeometry>
        </mxCell>
        <mxCell id="fIFdkWrldsteXy0r9QNV-103" value="&lt;font style=&quot;font-size: 9px;&quot;&gt;Сообщение об ошибке&lt;/font&gt;" style="text;html=1;align=center;verticalAlign=middle;whiteSpace=wrap;rounded=0;" vertex="1" parent="1">
          <mxGeometry x="195" y="160" width="150" height="30" as="geometry" />
        </mxCell>
        <mxCell id="fIFdkWrldsteXy0r9QNV-104" value="&lt;font style=&quot;font-size: 9px;&quot;&gt;Сообщение об ошибке&lt;/font&gt;" style="text;html=1;align=center;verticalAlign=middle;whiteSpace=wrap;rounded=0;" vertex="1" parent="1">
          <mxGeometry x="200" y="240" width="150" height="30" as="geometry" />
        </mxCell>
        <mxCell id="fIFdkWrldsteXy0r9QNV-105" value="&lt;font style=&quot;font-size: 9px;&quot;&gt;Сообщение об ошибке&lt;/font&gt;" style="text;html=1;align=center;verticalAlign=middle;whiteSpace=wrap;rounded=0;" vertex="1" parent="1">
          <mxGeometry x="715" y="160" width="150" height="30" as="geometry" />
        </mxCell>
        <mxCell id="fIFdkWrldsteXy0r9QNV-106" value="Запрос на просмотр данных пользователей" style="text;html=1;align=center;verticalAlign=middle;whiteSpace=wrap;rounded=0;" vertex="1" parent="1">
          <mxGeometry x="725" y="260" width="150" height="30" as="geometry" />
        </mxCell>
        <mxCell id="fIFdkWrldsteXy0r9QNV-107" value="Успешный вывод данных пользователей" style="text;html=1;align=center;verticalAlign=middle;whiteSpace=wrap;rounded=0;" vertex="1" parent="1">
          <mxGeometry x="715" y="310" width="170" height="30" as="geometry" />
        </mxCell>
        <mxCell id="fIFdkWrldsteXy0r9QNV-108" value="&lt;font style=&quot;font-size: 9px;&quot;&gt;Редактирование данных пользователей (добавление, удаление, изменение)&lt;/font&gt;" style="text;html=1;align=center;verticalAlign=middle;whiteSpace=wrap;rounded=0;" vertex="1" parent="1">
          <mxGeometry x="695" y="340" width="210" height="30" as="geometry" />
        </mxCell>
        <mxCell id="fIFdkWrldsteXy0r9QNV-110" value="Успешное выполнение действий" style="text;html=1;align=center;verticalAlign=middle;whiteSpace=wrap;rounded=0;" vertex="1" parent="1">
          <mxGeometry x="700" y="390" width="200" height="30" as="geometry" />
        </mxCell>
        <mxCell id="fIFdkWrldsteXy0r9QNV-111" value="Запрос на просмотр формулы квартплаты" style="text;html=1;align=center;verticalAlign=middle;whiteSpace=wrap;rounded=0;" vertex="1" parent="1">
          <mxGeometry x="705" y="420" width="190" height="30" as="geometry" />
        </mxCell>
        <mxCell id="fIFdkWrldsteXy0r9QNV-113" value="Успешный вывод формулы" style="text;html=1;align=center;verticalAlign=middle;whiteSpace=wrap;rounded=0;" vertex="1" parent="1">
          <mxGeometry x="715" y="470" width="170" height="30" as="geometry" />
        </mxCell>
        <mxCell id="fIFdkWrldsteXy0r9QNV-114" value="Запрос на редактирование формулы" style="text;html=1;align=center;verticalAlign=middle;whiteSpace=wrap;rounded=0;" vertex="1" parent="1">
          <mxGeometry x="715" y="500" width="160" height="30" as="geometry" />
        </mxCell>
        <mxCell id="fIFdkWrldsteXy0r9QNV-115" value="Успешное редактирование формулы" style="text;html=1;align=center;verticalAlign=middle;whiteSpace=wrap;rounded=0;" vertex="1" parent="1">
          <mxGeometry x="705" y="550" width="200" height="30" as="geometry" />
        </mxCell>
        <mxCell id="fIFdkWrldsteXy0r9QNV-116" value="Проверка корректности" style="text;html=1;align=center;verticalAlign=middle;whiteSpace=wrap;rounded=0;" vertex="1" parent="1">
          <mxGeometry x="460" y="125" width="60" height="30" as="geometry" />
        </mxCell>
        <mxCell id="fIFdkWrldsteXy0r9QNV-117" value="Проверка корректности" style="text;html=1;align=center;verticalAlign=middle;whiteSpace=wrap;rounded=0;" vertex="1" parent="1">
          <mxGeometry x="460" y="205" width="60" height="30" as="geometry" />
        </mxCell>
        <mxCell id="fIFdkWrldsteXy0r9QNV-118" value="Проверка корректности" style="text;html=1;align=center;verticalAlign=middle;whiteSpace=wrap;rounded=0;" vertex="1" parent="1">
          <mxGeometry x="980" y="125" width="60" height="30" as="geometry" />
        </mxCell>
      </root>
    </mxGraphModel>
  </diagram>
</mxfile>
